<svg xmlns="http://www.w3.org/2000/svg" width="13" height="13" viewBox="0 0 13 13">
  <path fill="#AFB1B3" d="M13,7.42857143 C13,7.57227891 12.9485417,7.69664116 12.845625,7.80165816 C12.7427083,7.90667517 12.6208333,7.95918367 12.48,7.95918367 L10.66,7.95918367 C10.66,8.90433673 10.4785417,9.70578231 10.115625,10.3635204 L11.805625,12.096301 C11.9085417,12.201318 11.96,12.3256803 11.96,12.4693878 C11.96,12.6130952 11.9085417,12.7374575 11.805625,12.8424745 C11.708125,12.9474915 11.58625,13 11.44,13 C11.29375,13 11.171875,12.9474915 11.074375,12.8424745 L9.465625,11.2091837 C9.43854167,11.2368197 9.39791667,11.2727466 9.34375,11.3169643 C9.28958333,11.361182 9.17583333,11.4399447 9.0025,11.5532526 C8.82916667,11.6665604 8.653125,11.767432 8.474375,11.8558673 C8.295625,11.9443027 8.07354167,12.0244473 7.808125,12.096301 C7.54270833,12.1681548 7.28,12.2040816 7.02,12.2040816 L7.02,4.7755102 L5.98,4.7755102 L5.98,12.2040816 C5.70375,12.2040816 5.42885417,12.166773 5.1553125,12.0921556 C4.88177083,12.0175383 4.64614583,11.9263393 4.4484375,11.8185587 C4.25072917,11.7107781 4.07197917,11.6029974 3.9121875,11.4952168 C3.75239583,11.3874362 3.63458333,11.297619 3.55875,11.2257653 L3.436875,11.1096939 L1.95,12.8258929 C1.84166667,12.9419643 1.71166667,13 1.56,13 C1.43,13 1.31354167,12.9557823 1.210625,12.8673469 C1.10770833,12.7678571 1.0521875,12.6448767 1.0440625,12.4984056 C1.0359375,12.3519345 1.07791667,12.2234269 1.17,12.1128827 L2.81125,10.2308673 C2.49708333,9.60076531 2.34,8.84353741 2.34,7.95918367 L0.52,7.95918367 C0.379166667,7.95918367 0.257291667,7.90667517 0.154375,7.80165816 C0.0514583333,7.69664116 0,7.57227891 0,7.42857143 C0,7.28486395 0.0514583333,7.1605017 0.154375,7.05548469 C0.257291667,6.95046769 0.379166667,6.89795918 0.52,6.89795918 L2.34,6.89795918 L2.34,4.46045918 L0.934375,3.02614796 C0.831458333,2.92113095 0.78,2.79676871 0.78,2.65306122 C0.78,2.50935374 0.831458333,2.3849915 0.934375,2.27997449 C1.03729167,2.17495748 1.15916667,2.12244898 1.3,2.12244898 C1.44083333,2.12244898 1.56270833,2.17495748 1.665625,2.27997449 L3.07125,3.71428571 L9.92875,3.71428571 L11.334375,2.27997449 C11.4372917,2.17495748 11.5591667,2.12244898 11.7,2.12244898 C11.8408333,2.12244898 11.9627083,2.17495748 12.065625,2.27997449 C12.1685417,2.3849915 12.22,2.50935374 12.22,2.65306122 C12.22,2.79676871 12.1685417,2.92113095 12.065625,3.02614796 L10.66,4.46045918 L10.66,6.89795918 L12.48,6.89795918 C12.6208333,6.89795918 12.7427083,6.95046769 12.845625,7.05548469 C12.9485417,7.1605017 13,7.28486395 13,7.42857143 Z M9.1,2.65306122 L3.9,2.65306122 C3.9,1.91794218 4.15322917,1.29198554 4.6596875,0.775191327 C5.16614583,0.258397109 5.77958333,0 6.5,0 C7.22041667,0 7.83385417,0.258397109 8.3403125,0.775191327 C8.84677083,1.29198554 9.1,1.91794218 9.1,2.65306122 Z"/>
</svg>
