<svg xmlns="http://www.w3.org/2000/svg" width="16" height="16" viewBox="0 0 16 16">
  <g fill="none">
    <path fill="#F0A732" d="M16,11.7142857 C16,11.8248299 15.9604166,11.9204932 15.88125,12.0012755 C15.8020834,12.0820578 15.7083334,12.122449 15.6,12.122449 L14.2,12.122449 C14.2,12.8494898 14.0604166,13.4659864 13.78125,13.9719388 L15.08125,15.3048469 C15.1604166,15.3856293 15.2,15.4812925 15.2,15.5918367 C15.2,15.7023809 15.1604166,15.7980442 15.08125,15.8788265 C15.00625,15.9596089 14.9125,16 14.8,16 C14.6875,16 14.59375,15.9596089 14.51875,15.8788265 L13.28125,14.622449 C13.2604166,14.6437075 13.2291666,14.6713436 13.1875,14.7053571 C13.1458334,14.7393707 13.0583334,14.7999575 12.925,14.8871174 C12.7916666,14.9742772 12.65625,15.0518707 12.51875,15.1198979 C12.38125,15.1879251 12.2104167,15.2495749 12.00625,15.3048469 C11.8020833,15.3601191 11.6,15.3877551 11.4,15.3877551 L11.4,9.67346939 L10.6,9.67346939 L10.6,15.3877551 C10.3875,15.3877551 10.1760417,15.3590561 9.965625,15.3016581 C9.75520834,15.2442602 9.57395834,15.1741071 9.421875,15.091199 C9.26979166,15.0082908 9.13229166,14.9253826 9.009375,14.8424745 C8.88645834,14.7595664 8.79583334,14.6904762 8.7375,14.6352041 L8.64375,14.5459184 L7.5,15.8660714 C7.41666666,15.9553571 7.31666666,16 7.2,16 C7.1,16 7.01041666,15.9659864 6.93125,15.8979592 C6.85208334,15.8214286 6.809375,15.7268282 6.803125,15.6141581 C6.796875,15.5014881 6.82916666,15.4026361 6.9,15.3176021 L8.1625,13.8698979 C7.92083334,13.3852041 7.8,12.8027211 7.8,12.122449 L6.4,12.122449 C6.29166666,12.122449 6.19791666,12.0820578 6.11875,12.0012755 C6.03958334,11.9204932 6,11.8248299 6,11.7142857 C6,11.6037415 6.03958334,11.5080782 6.11875,11.4272959 C6.19791666,11.3465136 6.29166666,11.3061225 6.4,11.3061225 L7.8,11.3061225 L7.8,9.43112245 L6.71875,8.32780612 C6.63958334,8.24702381 6.6,8.15136054 6.6,8.04081633 C6.6,7.93027211 6.63958334,7.83460884 6.71875,7.75382653 C6.79791666,7.67304421 6.89166666,7.63265306 7,7.63265306 C7.10833334,7.63265306 7.20208334,7.67304421 7.28125,7.75382653 L8.3625,8.85714286 L13.6375,8.85714286 L14.71875,7.75382653 C14.7979166,7.67304421 14.8916666,7.63265306 15,7.63265306 C15.1083334,7.63265306 15.2020834,7.67304421 15.28125,7.75382653 C15.3604166,7.83460884 15.4,7.93027211 15.4,8.04081633 C15.4,8.15136054 15.3604166,8.24702381 15.28125,8.32780612 L14.2,9.43112245 L14.2,11.3061225 L15.6,11.3061225 C15.7083334,11.3061225 15.8020834,11.3465136 15.88125,11.4272959 C15.9604166,11.5080782 16,11.6037415 16,11.7142857 Z M13,8.04081633 L9,8.04081633 C9,7.47534014 9.19479166,6.99383504 9.584375,6.59630102 C9.97395834,6.19876701 10.4458333,6 11,6 C11.5541667,6 12.0260417,6.19876701 12.415625,6.59630102 C12.8052084,6.99383504 13,7.47534014 13,8.04081633 Z"/>
    <polygon fill="#AFB1B3" points="1.6 8.643 6.4 8.643 6.4 9.429 1.6 9.429"/>
    <path fill="#AFB1B3" d="M2,10.2142857 L6,10.2142857 C6,10.6482237 5.6418278,11 5.2,11 L2.8,11 C2.3581722,11 2,10.6482237 2,10.2142857 Z"/>
    <path fill="#F0A732" d="M8,3.3 C8,6.44285714 6.4,6.26135714 6.4,7.85714286 L1.6,7.85714286 C1.6,6.31007143 0,6.44285714 0,3.3 C0,1.56435714 1.7912,0 4,0 C6.2088,0 8,1.56435714 8,3.3 Z"/>
  </g>
</svg>
