<svg xmlns="http://www.w3.org/2000/svg" width="16" height="16" viewBox="0 0 16 16">
  <g fill="none">
    <polygon fill="#6E6E6E" points="1.6 8.643 6.4 8.643 6.4 9.429 1.6 9.429"/>
    <path fill="#6E6E6E" d="M2,10.2142857 L6,10.2142857 C6,10.6482237 5.6418278,11 5.2,11 L2.8,11 C2.3581722,11 2,10.6482237 2,10.2142857 Z"/>
    <path fill="#EDA200" d="M8,3.3 C8,6.44285714 6.4,6.26135714 6.4,7.85714286 L1.6,7.85714286 C1.6,6.31007143 0,6.44285714 0,3.3 C0,1.56435714 1.7912,0 4,0 C6.2088,0 8,1.56435714 8,3.3 Z"/>
    <path fill="#EDA200" d="M10,5.71428571 C10,5.82482993 9.96041664,5.9204932 9.88125,6.00127551 C9.80208336,6.08205782 9.70833336,6.12244898 9.6,6.12244898 L8.2,6.12244898 C8.2,6.84948979 8.06041664,7.46598643 7.78125,7.97193879 L9.08125,9.30484693 C9.16041664,9.38562929 9.2,9.4812925 9.2,9.59183671 C9.2,9.70238093 9.16041664,9.79804421 9.08125,9.8788265 C9.00625,9.95960886 8.9125,10 8.8,10 C8.6875,10 8.59375,9.95960886 8.51875,9.8788265 L7.28125,8.622449 C7.26041664,8.6437075 7.22916664,8.67134357 7.1875,8.70535714 C7.14583336,8.73937071 7.05833336,8.7999575 6.925,8.88711736 C6.79166664,8.97427721 6.65625,9.05187071 6.51875,9.11989793 C6.38125,9.18792514 6.21041666,9.24957486 6.00625,9.30484693 C5.80208334,9.36011907 5.6,9.38775507 5.4,9.38775507 L5.4,3.67346939 L4.6,3.67346939 L4.6,9.38775507 C4.3875,9.38775507 4.17604166,9.35905614 3.965625,9.30165814 C3.75520834,9.24426021 3.57395834,9.17410714 3.421875,9.091199 C3.26979166,9.00829079 3.13229166,8.92538264 3.009375,8.8424745 C2.88645834,8.75956636 2.79583334,8.69047621 2.7375,8.63520407 L2.64375,8.54591836 L1.5,9.86607143 C1.41666666,9.95535714 1.31666666,10 1.2,10 C1.1,10 1.01041666,9.96598643 0.93125,9.89795921 C0.852083336,9.82142857 0.809375,9.72682821 0.803125,9.61415814 C0.796875,9.50148807 0.829166664,9.40263607 0.9,9.31760207 L2.1625,7.86989793 C1.92083334,7.38520407 1.8,6.80272107 1.8,6.12244898 L0.4,6.12244898 C0.291666664,6.12244898 0.197916664,6.08205782 0.11875,6.00127551 C0.0395833357,5.9204932 0,5.82482993 0,5.71428571 C0,5.6037415 0.0395833357,5.50807823 0.11875,5.42729592 C0.197916664,5.34651361 0.291666664,5.30612245 0.4,5.30612245 L1.8,5.30612245 L1.8,3.43112245 L0.71875,2.32780612 C0.639583336,2.24702381 0.6,2.15136054 0.6,2.04081633 C0.6,1.93027211 0.639583336,1.83460884 0.71875,1.75382653 C0.797916664,1.67304421 0.891666664,1.63265306 1,1.63265306 C1.10833334,1.63265306 1.20208334,1.67304421 1.28125,1.75382653 L2.3625,2.85714286 L7.6375,2.85714286 L8.71875,1.75382653 C8.79791664,1.67304421 8.89166664,1.63265306 9,1.63265306 C9.10833336,1.63265306 9.20208336,1.67304421 9.28125,1.75382653 C9.36041664,1.83460884 9.4,1.93027211 9.4,2.04081633 C9.4,2.15136054 9.36041664,2.24702381 9.28125,2.32780612 L8.2,3.43112245 L8.2,5.30612245 L9.6,5.30612245 C9.70833336,5.30612245 9.80208336,5.34651361 9.88125,5.42729592 C9.96041664,5.50807823 10,5.6037415 10,5.71428571 Z M7,2.04081633 L3,2.04081633 C3,1.47534014 3.19479166,0.993835036 3.584375,0.596301021 C3.97395834,0.198767007 4.44583334,0 5,0 C5.55416666,0 6.02604166,0.198767007 6.415625,0.596301021 C6.80520836,0.993835036 7,1.47534014 7,2.04081633 Z" transform="translate(6 6)"/>
  </g>
</svg>
