<svg xmlns="http://www.w3.org/2000/svg" width="12" height="12" viewBox="0 0 12 12">
  <path fill="#AFB1B3" d="M12,6.85714286 C12,6.98979592 11.9525,7.10459184 11.8575,7.20153061 C11.7625,7.29846939 11.65,7.34693878 11.52,7.34693878 L9.84,7.34693878 C9.84,8.21938776 9.6725,8.95918367 9.3375,9.56632653 L10.8975,11.1658163 C10.9925,11.2627551 11.04,11.377551 11.04,11.5102041 C11.04,11.6428571 10.9925,11.7576531 10.8975,11.8545918 C10.8075,11.9515306 10.695,12 10.56,12 C10.425,12 10.3125,11.9515306 10.2225,11.8545918 L8.7375,10.3469388 C8.7125,10.372449 8.675,10.4056122 8.625,10.4464286 C8.575,10.4872449 8.47,10.559949 8.31,10.6645408 C8.15,10.7691327 7.9875,10.8622449 7.8225,10.9438776 C7.6575,11.0255102 7.4525,11.0994898 7.2075,11.1658163 C6.9625,11.2321429 6.72,11.2653061 6.48,11.2653061 L6.48,4.40816327 L5.52,4.40816327 L5.52,11.2653061 C5.265,11.2653061 5.01125,11.2308673 4.75875,11.1619898 C4.50625,11.0931122 4.28875,11.0089286 4.10625,10.9094388 C3.92375,10.809949 3.75875,10.7104592 3.61125,10.6109694 C3.46375,10.5114796 3.355,10.4285714 3.285,10.3622449 L3.1725,10.255102 L1.8,11.8392857 C1.7,11.9464286 1.58,12 1.44,12 C1.32,12 1.2125,11.9591837 1.1175,11.877551 C1.0225,11.7857143 0.97125,11.6721939 0.96375,11.5369898 C0.95625,11.4017857 0.995,11.2831633 1.08,11.1811224 L2.595,9.44387755 C2.305,8.8622449 2.16,8.16326531 2.16,7.34693878 L0.48,7.34693878 C0.35,7.34693878 0.2375,7.29846939 0.1425,7.20153061 C0.0475,7.10459184 0,6.98979592 0,6.85714286 C0,6.7244898 0.0475,6.60969388 0.1425,6.5127551 C0.2375,6.41581633 0.35,6.36734694 0.48,6.36734694 L2.16,6.36734694 L2.16,4.11734694 L0.8625,2.79336735 C0.7675,2.69642857 0.72,2.58163265 0.72,2.44897959 C0.72,2.31632653 0.7675,2.20153061 0.8625,2.10459184 C0.9575,2.00765306 1.07,1.95918367 1.2,1.95918367 C1.33,1.95918367 1.4425,2.00765306 1.5375,2.10459184 L2.835,3.42857143 L9.165,3.42857143 L10.4625,2.10459184 C10.5575,2.00765306 10.67,1.95918367 10.8,1.95918367 C10.93,1.95918367 11.0425,2.00765306 11.1375,2.10459184 C11.2325,2.20153061 11.28,2.31632653 11.28,2.44897959 C11.28,2.58163265 11.2325,2.69642857 11.1375,2.79336735 L9.84,4.11734694 L9.84,6.36734694 L11.52,6.36734694 C11.65,6.36734694 11.7625,6.41581633 11.8575,6.5127551 C11.9525,6.60969388 12,6.7244898 12,6.85714286 Z M8.4,2.44897959 L3.6,2.44897959 C3.6,1.77040816 3.83375,1.19260204 4.30125,0.715561224 C4.76875,0.238520408 5.335,0 6,0 C6.665,0 7.23125,0.238520408 7.69875,0.715561224 C8.16625,1.19260204 8.4,1.77040816 8.4,2.44897959 Z"/>
</svg>
