<svg xmlns="http://www.w3.org/2000/svg" width="16" height="16" viewBox="0 0 16 16">
  <g fill="none" fill-rule="evenodd">
    <path fill="#DB5860" d="M15,9 C15,9.1547619 14.9445833,9.28869048 14.83375,9.40178571 C14.7229167,9.51488095 14.5916667,9.57142857 14.44,9.57142857 L12.48,9.57142857 C12.48,10.5892857 12.2845833,11.452381 11.89375,12.1607143 L13.71375,14.0267857 C13.8245833,14.139881 13.88,14.2738095 13.88,14.4285714 C13.88,14.5833333 13.8245833,14.7172619 13.71375,14.8303571 C13.60875,14.9434524 13.4775,15 13.32,15 C13.1625,15 13.03125,14.9434524 12.92625,14.8303571 L11.19375,13.0714286 C11.1645833,13.1011905 11.1208333,13.139881 11.0625,13.1875 C11.0041667,13.235119 10.8816667,13.3199405 10.695,13.4419643 C10.5083333,13.5639881 10.31875,13.672619 10.12625,13.7678571 C9.93375,13.8630952 9.69458333,13.9494048 9.40875,14.0267857 C9.12291667,14.1041667 8.84,14.1428571 8.56,14.1428571 L8.56,6.14285714 L7.44,6.14285714 L7.44,14.1428571 C7.1425,14.1428571 6.84645833,14.1026786 6.551875,14.0223214 C6.25729167,13.9419643 6.00354167,13.84375 5.790625,13.7276786 C5.57770833,13.6116071 5.38520833,13.4955357 5.213125,13.3794643 C5.04104167,13.2633929 4.91416667,13.1666667 4.8325,13.0892857 L4.70125,12.9642857 L3.1,14.8125 C2.98333333,14.9375 2.84333333,15 2.68,15 C2.54,15 2.41458333,14.952381 2.30375,14.8571429 C2.19291667,14.75 2.133125,14.6175595 2.124375,14.4598214 C2.115625,14.3020833 2.16083333,14.1636905 2.26,14.0446429 L4.0275,12.0178571 C3.68916667,11.3392857 3.52,10.5238095 3.52,9.57142857 L1.56,9.57142857 C1.40833333,9.57142857 1.27708333,9.51488095 1.16625,9.40178571 C1.05541667,9.28869048 1,9.1547619 1,9 C1,8.8452381 1.05541667,8.71130952 1.16625,8.59821429 C1.27708333,8.48511905 1.40833333,8.42857143 1.56,8.42857143 L3.52,8.42857143 L3.52,5.80357143 L2.00625,4.25892857 C1.89541667,4.14583333 1.84,4.01190476 1.84,3.85714286 C1.84,3.70238095 1.89541667,3.56845238 2.00625,3.45535714 C2.11708333,3.3422619 2.24833333,3.28571429 2.4,3.28571429 C2.55166667,3.28571429 2.68291667,3.3422619 2.79375,3.45535714 L4.3075,5 L11.6925,5 L13.20625,3.45535714 C13.3170833,3.3422619 13.4483333,3.28571429 13.6,3.28571429 C13.7516667,3.28571429 13.8829167,3.3422619 13.99375,3.45535714 C14.1045833,3.56845238 14.16,3.70238095 14.16,3.85714286 C14.16,4.01190476 14.1045833,4.14583333 13.99375,4.25892857 L12.48,5.80357143 L12.48,8.42857143 L14.44,8.42857143 C14.5916667,8.42857143 14.7229167,8.48511905 14.83375,8.59821429 C14.9445833,8.71130952 15,8.8452381 15,9 Z M10.8,3.85714286 L5.2,3.85714286 C5.2,3.06547619 5.47270833,2.39136905 6.018125,1.83482143 C6.56354167,1.27827381 7.22416667,1 8,1 C8.77583333,1 9.43645833,1.27827381 9.981875,1.83482143 C10.5272917,2.39136905 10.8,3.06547619 10.8,3.85714286 Z"/>
  </g>
</svg>
